<svg xmlns="http://www.w3.org/2000/svg" xmlns:xlink="http://www.w3.org/1999/xlink" id="Capa_1" x="0" y="0" version="1.1" viewBox="0 0 512 512" xml:space="preserve" style="enable-background:new 0 0 512 512"><circle style="fill:#00c8c8" cx="256" cy="256" r="256"/><path style="fill:#1cadb5" d="M295.437,508.976C398.259,493.077,480.856,415.99,504.89,316.09L403.168,214.369l-13.698,9.426	l-80.84-80.84L119.555,333.094L295.437,508.976z"/><polygon style="fill:#ffd400" points="253.09 87.414 119.555 87.414 119.555 333.094 308.631 333.094 308.631 142.955"/><polygon style="fill:#ffb000" points="308.631 142.955 253.09 87.414 207.952 87.414 207.952 333.094 308.631 333.094"/><polygon style="fill:#ff432e" points="253.09 142.955 308.631 142.955 253.09 87.414"/><polygon style="fill:#fff" points="347.627 158.828 214.093 158.828 214.093 404.508 403.168 404.508 403.168 214.369"/><polygon style="fill:#f2f6fc" points="403.168 214.369 347.627 158.828 307.952 158.828 307.952 404.508 403.168 404.508"/><g><polygon style="fill:#dce1eb" points="347.627 214.369 403.168 214.369 347.627 158.828"/><rect style="fill:#dce1eb" width="138.26" height="12.408" x="239.5" y="240.37"/></g><rect style="fill:#cdd2e1" width="69.809" height="12.408" x="307.95" y="240.37"/><rect style="fill:#dce1eb" width="138.26" height="12.408" x="239.5" y="269.61"/><rect style="fill:#cdd2e1" width="69.809" height="12.408" x="307.95" y="269.61"/><rect style="fill:#dce1eb" width="138.26" height="12.408" x="239.5" y="298.86"/><rect style="fill:#cdd2e1" width="69.809" height="12.408" x="307.95" y="298.86"/><rect style="fill:#dce1eb" width="138.26" height="12.408" x="239.5" y="328.11"/><rect style="fill:#cdd2e1" width="69.809" height="12.408" x="307.95" y="328.11"/></svg>